<svg class="icon" viewBox="0 0 1103 1024" xmlns="http://www.w3.org/2000/svg" width="200" height="200"><path d="M1008.869 927.01c53.384-253.345 58.398-506.695 15.039-760.045-7.665-43.017-50.853-85.067-93.892-91.8-251.007-37.571-502.015-37.571-753.018 0-43.043 6.729-86.231 48.783-93.891 91.795-43.364 253.35-38.35 506.7 15.039 760.046 303.57 54.966 607.144 54.966 910.723.004z" fill="#EDEDED"/><path d="M1034.495 953.682c-320.662 68.397-641.319 68.397-961.98 0C7.902 693.147-.105 432.607 48.497 172.067c11.906-60.293 74.326-120.889 134.557-131.41C430.018.084 676.983.084 923.947 40.657c60.231 10.521 122.656 71.117 134.561 131.41 48.603 260.54 40.6 521.08-24.013 781.615zm-909.123-54.76c285.423 43.409 570.843 43.409 856.262 0 43.509-245.57 46.062-491.137 7.66-736.704-4.039-25.235-28.408-49.033-53.688-52.553-254.738-34.579-509.477-34.579-764.216 0-25.279 3.52-49.644 27.318-53.683 52.553-38.398 245.567-35.844 491.134 7.665 736.705z" fill="#EDEDED"/><path d="M930.012 75.16c-251.008-37.57-502.015-37.57-753.018 0-43.039 6.734-86.227 48.788-93.887 91.8a2051.446 2051.446 0 0 0-13.932 94.516c322.89-32.254 645.775-32.254 968.664 0a2059.26 2059.26 0 0 0-13.931-94.516c-7.67-43.012-50.857-85.066-93.896-91.8z" fill="#A3E9FF"/><path d="M1077.608 298.129a5712.958 5712.958 0 0 0-1048.21 0 1859.043 1859.043 0 0 1 19.1-126.062c11.905-60.293 74.325-120.889 134.556-131.41C430.018.084 676.983.084 923.947 40.657c60.231 10.521 122.656 71.117 134.561 131.41a1859.043 1859.043 0 0 1 19.1 126.062zM108.9 224.119c296.402-31.444 592.808-31.444 889.214 0a2283.995 2283.995 0 0 0-8.816-61.9c-4.039-25.236-28.408-49.034-53.687-52.554-254.739-34.579-509.478-34.579-764.216 0-25.28 3.52-49.644 27.318-53.683 52.553a2266.644 2266.644 0 0 0-8.812 61.902z" fill="#A3E9FF"/><path d="M215.704 401.874a12520.884 12520.884 0 0 1 258.193-4.307 14916.28 14916.28 0 0 0 2.439 401.311 4455.34 4455.34 0 0 1-250.287-11.4 3251.705 3251.705 0 0 1-10.345-385.604zm382.984-4.478c98.972.36 197.944 1.89 296.92 4.592a3192.885 3192.885 0 0 1 1.385 153.244 28089.317 28089.317 0 0 1-298.124 2.075c.1-53.301.04-106.606-.18-159.911zm-.1 242.024a10424.188 10424.188 0 0 0 296.265-5.494 3211.8 3211.8 0 0 1-9.726 153.244A4456.694 4456.694 0 0 1 597.3 799.335a26213.6 26213.6 0 0 0 1.287-159.915z" opacity=".28"/></svg>