<svg class="icon" viewBox="0 0 1044 1024" xmlns="http://www.w3.org/2000/svg" width="200" height="200"><path d="M281.403 323.698C297.83 148.015 411.917 77.834 460.8 66.757c48.883-11.078 140.878 10.126 240.309 151.262 171.784-23.583 296.288 27.638 326.997 105.679 30.72 78.041-27.368 206.724-96.028 277.349 81.92 168.07 46.566 277.08-21.277 323.46-67.842 46.38-251.914-3.186-272.57-13.188-61.326 71.752-219.89 128.082-314.099 99.917-62.805-18.773-94.208-110.716-94.208-275.828C104.5 698.337 36.864 625.147 27.017 515.817c-3.268-115.309 149.7-192.12 254.397-192.12z" fill="#F5AD07"/><path d="M250.725 260.417c24.286-178 132.5-246.04 184.816-257.78C487.858-9.102 589.7 14.74 685.563 148.522c192.915-11.315 295.512 29.272 328.404 111.896 32.882 82.644-20.077 209.796-93.577 284.568 87.691 177.949 36.605 291.571-28.341 332.8-64.926 41.24-251.863-3.754-273.967-14.346-65.65 75.972-224.473 131.465-321.629 96.4-64.77-23.365-95.987-113.58-93.629-270.646C78.186 649.95 10.592 572.447.052 456.693-3.455 334.61 162.775 258.256 250.725 260.418z" fill="#FFE294"/><path d="M188.716 525.477a33.689 33.689 0 1 1-.01-67.387 33.689 33.689 0 0 1 .01 67.387zm53.92-94.321a20.211 20.211 0 1 1 0-40.433 20.211 20.211 0 0 1 0 40.443z" fill="#F9FBF8"/></svg>