<svg xmlns="http://www.w3.org/2000/svg" viewBox="0 0 512 512" style="enable-background:new 0 0 512 512" xml:space="preserve"><path d="M452.88 370.59c-6.47 10.61-21.12 14.03-32.05 6.93l-32.62-18.83v34.61c.71 13.43-10.32 24.61-23.16 24.29-12.44-.31-22.72-11.29-22.03-24.29v-60.7l-64.41-37.18v73.54l52.56 30.35c12 6.11 16.15 21.24 9.46 32.21-6.49 10.61-21.13 14.03-32.05 6.93l-29.96-17.3v38.23c.7 13.45-10.33 24.61-23.16 24.29-12.43-.31-22.72-11.28-22.03-24.29v-37.67L203.44 439c-11.29 7.33-26.47 3.37-32.62-7.91-5.95-10.93-1.59-25.32 10.02-31.23l52.56-30.35V295.4l-63.93 36.91V393c.71 13.46-10.32 24.61-23.16 24.3-12.44-.32-22.72-11.29-22.03-24.3v-34.6l-33.11 19.12c-11.3 7.33-26.48 3.37-32.62-7.91-5.95-10.91-1.6-25.32 10.02-31.23l32.62-18.83-29.96-17.3c-12-6.11-16.16-21.24-9.46-32.2 6.49-10.62 21.13-14.04 32.05-6.94l52.56 30.34 64.4-37.18-63.92-36.9-52.56 30.35c-11.29 7.33-26.46 3.36-32.62-7.92-5.95-10.93-1.59-25.31 10.02-31.22l29.96-17.31-33.11-19.12c-12-6.11-16.16-21.24-9.46-32.2 6.47-10.61 21.12-14.03 32.05-6.94l32.62 18.83v-34.6c-.71-13.45 10.32-24.61 23.16-24.29 12.44.31 22.72 11.28 22.03 24.29v60.7l64.41 37.18v-74.07L180.8 112.7c-12-6.11-16.15-21.24-9.46-32.21 6.49-10.61 21.13-14.03 32.05-6.93l29.96 17.3V52.62c-.7-13.45 10.33-24.61 23.16-24.29 12.43.31 22.72 11.28 22.03 24.29v37.67L308.56 73c11.29-7.33 26.47-3.37 32.62 7.91 5.95 10.93 1.59 25.32-10.02 31.23l-52.56 30.35v74.64l63.93-36.91v-60.69c-.71-13.46 10.32-24.61 23.16-24.3 12.44.32 22.72 11.29 22.03 24.3v34.6L420.83 135c11.3-7.33 26.48-3.37 32.62 7.91 5.95 10.91 1.6 25.32-10.02 31.23l-32.62 18.83 29.96 17.3c12 6.11 16.16 21.24 9.46 32.2-6.49 10.62-21.13 14.04-32.05 6.94l-52.56-30.34-64.41 37.18 63.93 36.91 52.56-30.35c11.29-7.33 26.46-3.36 32.62 7.92 5.95 10.91 1.59 25.31-10.02 31.22l-29.96 17.3 33.11 19.12c11.97 6.13 16.13 21.26 9.43 32.22z" style="fill:#4db4ff"/></svg>